<svg version="1.1" id="Layer_1" xmlns="http://www.w3.org/2000/svg" xmlns:xlink="http://www.w3.org/1999/xlink" x="0px" y="0px"
	 width="100%" viewBox="0 0 101 112" enable-background="new 0 0 101 112" xml:space="preserve">
<path fill="#FAFBFA" opacity="1.000000" stroke="none" 
	d="
M55.000000,1.000000 
	C70.650414,1.000000 86.300819,1.000000 101.975616,1.000000 
	C101.975616,38.278324 101.975616,75.556671 101.975616,112.917511 
	C68.423447,112.917511 34.846619,112.917511 1.134895,112.917511 
	C1.134895,75.666969 1.134895,38.333565 1.134895,1.000000 
	C17.429876,1.000000 33.746281,1.000000 50.658188,1.273319 
	C51.865250,2.042697 52.476810,2.538756 53.033676,3.378651 
	C52.722099,5.044331 52.465221,6.366173 52.013523,7.966491 
	C50.830235,7.747463 49.859421,7.210175 48.849152,6.761788 
	C47.337284,6.090774 45.797676,5.482261 43.996067,4.733347 
	C43.787781,7.856369 43.661533,9.749322 43.535286,11.642276 
	C43.025414,11.674060 42.515545,11.705844 42.005672,11.737628 
	C41.655300,10.437765 41.493362,9.042533 40.898201,7.866557 
	C40.369957,6.822801 39.471325,5.448800 38.534252,5.268164 
	C37.496090,5.068041 35.361080,5.875654 35.217838,6.560934 
	C34.713833,8.972119 33.808773,12.843040 34.962181,13.758624 
	C38.037373,16.199736 39.107918,18.905539 39.455978,22.527143 
	C39.573673,23.751781 41.086365,24.842350 42.008907,26.192904 
	C42.056274,26.391619 42.143303,26.790808 42.115776,27.244522 
	C42.082310,29.504202 42.076366,31.310167 41.939743,33.433754 
	C30.634188,39.349171 22.215956,47.307976 18.872934,59.861313 
	C27.533464,55.815235 35.926716,52.027920 44.197376,47.989540 
	C51.366772,44.488876 56.498081,39.164391 58.259037,30.978655 
	C58.499275,30.967793 58.979599,30.944019 59.201317,30.963085 
	C59.423038,30.982153 59.866779,31.016647 59.967369,31.105350 
	C60.067963,31.194052 60.331692,31.242987 60.277637,31.621571 
	C58.491673,42.674606 50.661926,47.780289 41.890343,51.964962 
	C35.917469,54.814449 29.731762,57.250290 23.904049,60.363140 
	C17.009113,64.046043 15.411018,71.400887 19.385405,78.310112 
	C20.486301,76.414932 21.632433,74.441872 22.946976,72.812080 
	C23.509470,73.469376 23.903557,73.783409 24.177536,74.452179 
	C19.422863,84.279442 20.477262,88.393143 29.751860,96.037979 
	C30.019169,86.071388 32.355099,76.985565 38.906052,69.686310 
	C39.424854,70.376411 39.796337,70.714935 40.055534,71.385635 
	C35.135685,78.373474 32.744915,85.884239 32.464367,94.014778 
	C32.395924,95.998268 32.717106,99.071014 33.965122,99.834084 
	C38.837399,102.813118 44.153481,105.066307 49.304558,107.589363 
	C49.529774,107.166481 49.754990,106.743599 49.980206,106.320717 
	C49.371181,105.341019 48.708942,104.390099 48.161247,103.377235 
	C41.741608,91.505249 41.287395,79.169258 51.783203,69.262245 
	C53.709354,67.444145 55.421803,65.378105 57.087708,63.309578 
	C64.241013,54.427380 70.422211,45.263115 65.157654,32.796898 
	C70.791100,29.616259 70.843796,23.658871 72.847954,18.900299 
	C73.846825,16.528625 73.511902,13.595204 73.846153,10.597145 
	C74.002235,9.853797 74.092484,9.429189 74.518433,8.922034 
	C78.129272,3.367686 71.590904,5.538052 69.902161,3.259351 
	C69.620087,4.881956 69.338013,6.504560 69.059113,8.439108 
	C69.043472,9.166110 69.024658,9.581168 68.631973,9.990671 
	C63.838734,6.990077 59.419369,3.995039 55.000000,1.000000 
M63.678505,59.081341 
	C61.483860,61.787006 59.602280,64.841141 57.042728,67.140625 
	C42.642029,80.078148 44.687576,96.277168 57.328053,109.025742 
	C56.686497,105.233353 56.030174,101.836472 55.548660,98.414993 
	C54.206696,88.879478 57.946095,84.481468 67.408752,84.652267 
	C71.403381,84.724373 76.230278,86.341728 74.580315,79.177528 
	C74.520973,78.919846 74.786301,78.548180 74.972084,78.279228 
	C77.273354,74.947914 78.215775,71.487457 75.651321,67.889778 
	C78.076065,66.844032 80.119888,65.962570 80.842720,65.650826 
	C79.085587,58.924206 77.518196,52.998081 75.992401,47.061260 
	C74.570183,41.527447 72.861977,36.189064 67.390839,33.052063 
	C71.350555,42.306160 68.764053,50.516323 63.678505,59.081341 
z"/>
<path fill="#FBF9EE" opacity="1.000000" stroke="none" 
	d="
M54.600006,1.000000 
	C59.419369,3.995039 63.838734,6.990077 68.807037,10.269211 
	C68.528427,12.590450 67.700874,14.627595 66.733826,16.713436 
	C66.594330,16.762135 66.322762,16.878670 66.235748,16.538448 
	C65.097847,14.470191 64.046951,12.742156 62.957039,10.669973 
	C61.435558,10.493178 59.953098,10.660531 58.249161,10.852885 
	C57.961945,10.219695 57.435497,9.059097 56.953232,7.540030 
	C55.694401,5.799311 54.391388,4.417063 53.088371,3.034815 
	C52.476810,2.538756 51.865250,2.042697 51.126846,1.273319 
	C52.066669,1.000000 53.133339,1.000000 54.600006,1.000000 
z"/>
<path fill="#080808" opacity="1.000000" stroke="none" 
	d="
M63.867138,58.766144 
	C68.764053,50.516323 71.350555,42.306160 67.390839,33.052063 
	C72.861977,36.189064 74.570183,41.527447 75.992401,47.061260 
	C77.518196,52.998081 79.085587,58.924206 80.842720,65.650826 
	C80.119888,65.962570 78.076065,66.844032 75.651321,67.889778 
	C78.215775,71.487457 77.273354,74.947914 74.972084,78.279228 
	C74.786301,78.548180 74.520973,78.919846 74.580315,79.177528 
	C76.230278,86.341728 71.403381,84.724373 67.408752,84.652267 
	C57.946095,84.481468 54.206696,88.879478 55.548660,98.414993 
	C56.030174,101.836472 56.686497,105.233353 57.328053,109.025742 
	C44.687576,96.277168 42.642029,80.078148 57.042728,67.140625 
	C59.602280,64.841141 61.483860,61.787006 63.867138,58.766144 
z"/>
<path fill="#0C0C0C" opacity="1.000000" stroke="none" 
	d="
M64.955879,33.084412 
	C70.422211,45.263115 64.241013,54.427380 57.087708,63.309578 
	C55.421803,65.378105 53.709354,67.444145 51.783203,69.262245 
	C41.287395,79.169258 41.741608,91.505249 48.161247,103.377235 
	C48.708942,104.390099 49.371181,105.341019 49.980206,106.320717 
	C49.754990,106.743599 49.529774,107.166481 49.304558,107.589363 
	C44.153481,105.066307 38.837399,102.813118 33.965122,99.834084 
	C32.717106,99.071014 32.395924,95.998268 32.464367,94.014778 
	C32.744915,85.884239 35.135685,78.373474 40.355030,71.245171 
	C45.854748,65.343185 51.480881,60.309566 55.857563,54.357235 
	C59.258949,49.731323 61.262249,44.027760 63.544353,38.657581 
	C64.265640,36.960270 63.880688,34.792862 64.238457,32.909431 
	C64.474915,32.978268 64.955879,33.084412 64.955879,33.084412 
z"/>
<path fill="#090909" opacity="1.000000" stroke="none" 
	d="
M58.018799,30.989517 
	C56.498081,39.164391 51.366772,44.488876 44.197376,47.989540 
	C35.926716,52.027920 27.533464,55.815235 18.872934,59.861313 
	C22.215956,47.307976 30.634188,39.349171 42.340202,33.435875 
	C45.588505,32.427422 48.305668,31.734463 51.433838,31.079346 
	C53.210655,30.977028 54.576466,30.836872 56.292320,30.749748 
	C57.101177,30.865028 57.559990,30.927273 58.018799,30.989517 
z"/>
<path fill="#0E0E0E" opacity="1.000000" stroke="none" 
	d="
M22.778564,72.468819 
	C21.632433,74.441872 20.486301,76.414932 19.385405,78.310112 
	C15.411018,71.400887 17.009113,64.046043 23.904049,60.363140 
	C29.731762,57.250290 35.917469,54.814449 41.890343,51.964962 
	C50.661926,47.780289 58.491673,42.674606 60.509819,31.710604 
	C61.129448,31.434101 61.458855,31.403841 61.741291,31.512394 
	C61.698299,31.694517 61.896328,32.012093 61.785271,32.415829 
	C62.094662,41.704361 58.297760,48.619026 51.096069,53.385151 
	C45.210297,57.280392 38.667213,60.176079 32.732491,64.006027 
	C29.104847,66.347115 26.076221,69.616402 22.778564,72.468819 
z"/>
<path fill="#D4A256" opacity="1.000000" stroke="none" 
	d="
M66.322762,16.878670 
	C66.322762,16.878670 66.594330,16.762135 66.870171,17.041319 
	C67.723518,18.543846 68.301025,19.767191 68.861084,21.364637 
	C67.900719,24.239962 66.957787,26.741184 65.764175,29.150932 
	C65.337402,29.084675 65.161301,29.109892 64.656792,29.079927 
	C63.885624,29.019806 63.442860,29.014866 62.604519,28.929205 
	C56.215038,29.112555 50.221134,29.376627 43.955757,29.652658 
	C43.539879,28.995991 42.841591,27.893400 42.143303,26.790808 
	C42.143303,26.790808 42.056274,26.391619 42.092636,25.784786 
	C41.750820,23.437315 40.915489,21.631636 41.150703,19.978256 
	C41.315155,18.822325 42.943619,17.874670 44.048714,17.121365 
	C44.778240,17.508694 45.449322,17.831511 45.962337,17.665590 
	C47.339432,17.220215 48.648911,16.565775 50.175056,16.171663 
	C51.230827,15.225192 52.096783,14.101416 53.190041,12.861814 
	C53.533726,12.439714 53.650112,12.133439 53.729683,11.787455 
	C53.692863,11.747745 53.714367,11.641600 54.064941,11.783467 
	C55.441265,12.511384 56.467018,13.097433 57.664204,13.918874 
	C58.527290,14.720438 59.218945,15.286611 60.095413,16.100878 
	C61.142792,15.618417 62.005352,14.887859 62.498180,14.470454 
	C63.751629,15.259711 65.037193,16.069191 66.322762,16.878670 
z"/>
<path fill="#0D0D0D" opacity="1.000000" stroke="none" 
	d="
M38.758736,69.334732 
	C32.355099,76.985565 30.019169,86.071388 29.751860,96.037979 
	C20.477262,88.393143 19.422863,84.279442 24.453590,74.278992 
	C29.364893,66.699249 37.225662,65.005966 44.518360,62.036308 
	C42.598484,64.469116 40.678608,66.901924 38.758736,69.334732 
z"/>
<path fill="#EBEBEA" opacity="1.000000" stroke="none" 
	d="
M38.906052,69.686310 
	C40.678608,66.901924 42.598484,64.469116 44.518360,62.036308 
	C37.225662,65.005966 29.364893,66.699249 24.573696,73.924263 
	C23.903557,73.783409 23.509470,73.469376 22.946976,72.812080 
	C26.076221,69.616402 29.104847,66.347115 32.732491,64.006027 
	C38.667213,60.176079 45.210297,57.280392 51.096069,53.385151 
	C58.297760,48.619026 62.094662,41.704361 62.064507,32.415077 
	C62.640957,32.011299 62.827114,32.012009 63.215782,32.101089 
	C63.675613,32.350246 63.870182,32.567287 64.001999,32.840591 
	C63.880688,34.792862 64.265640,36.960270 63.544353,38.657581 
	C61.262249,44.027760 59.258949,49.731323 55.857563,54.357235 
	C51.480881,60.309566 45.854748,65.343185 40.467316,70.912994 
	C39.796337,70.714935 39.424854,70.376411 38.906052,69.686310 
z"/>
<path fill="#FBF6E4" opacity="1.000000" stroke="none" 
	d="
M43.918198,16.833992 
	C42.943619,17.874670 41.315155,18.822325 41.150703,19.978256 
	C40.915489,21.631636 41.750820,23.437315 42.045273,25.586071 
	C41.086365,24.842350 39.573673,23.751781 39.455978,22.527143 
	C39.107918,18.905539 38.037373,16.199736 34.962181,13.758624 
	C33.808773,12.843040 34.713833,8.972119 35.217838,6.560934 
	C35.361080,5.875654 37.496090,5.068041 38.534252,5.268164 
	C39.471325,5.448800 40.369957,6.822801 40.898201,7.866557 
	C41.493362,9.042533 41.655300,10.437765 42.005672,11.737628 
	C42.515545,11.705844 43.025414,11.674060 43.535286,11.642276 
	C43.661533,9.749322 43.787781,7.856369 43.996067,4.733347 
	C45.797676,5.482261 47.337284,6.090774 48.849152,6.761788 
	C49.859421,7.210175 50.830235,7.747463 52.277367,8.171877 
	C53.062141,9.279725 53.388256,10.460663 53.714367,11.641600 
	C53.714367,11.641600 53.692863,11.747745 53.499687,11.892716 
	C53.191921,12.351005 53.077332,12.664321 52.962738,12.977638 
	C52.096783,14.101416 51.230827,15.225192 50.175865,15.813948 
	C48.954449,13.319154 47.922031,11.359380 46.762627,9.158542 
	C45.692608,12.045893 44.805405,14.439942 43.918198,16.833992 
z"/>
<path fill="#FBF9EE" opacity="1.000000" stroke="none" 
	d="
M64.238457,32.909431 
	C63.870182,32.567287 63.675613,32.350246 63.209972,31.766155 
	C62.996365,30.896666 62.991077,30.450481 62.986916,29.755669 
	C62.988033,29.507040 63.000092,29.009928 63.000092,29.009928 
	C63.442860,29.014866 63.885624,29.019806 64.748352,29.222828 
	C65.450500,29.361414 65.732681,29.301912 66.014862,29.242409 
	C66.957787,26.741184 67.900719,24.239962 69.037498,21.024342 
	C70.937294,17.270412 68.921204,12.428529 73.780319,10.915885 
	C73.511902,13.595204 73.846825,16.528625 72.847954,18.900299 
	C70.843796,23.658871 70.791100,29.616259 65.157654,32.796898 
	C64.955879,33.084412 64.474915,32.978268 64.238457,32.909431 
z"/>
<path fill="#EEE5CE" opacity="1.000000" stroke="none" 
	d="
M62.604519,28.929205 
	C63.000092,29.009928 62.988033,29.507040 62.727692,29.915159 
	C62.239662,30.658943 62.011974,30.994608 61.784286,31.330273 
	C61.458855,31.403841 61.129448,31.434101 60.563873,31.332020 
	C60.331692,31.242987 60.067963,31.194052 59.922256,30.928694 
	C59.510899,30.756897 59.245251,30.850458 58.979599,30.944019 
	C58.979599,30.944019 58.499275,30.967793 58.259037,30.978655 
	C57.559990,30.927273 57.101177,30.865028 56.016373,30.545975 
	C53.934525,30.539946 52.478680,30.790724 51.022831,31.041504 
	C48.305668,31.734463 45.588505,32.427422 42.470882,33.118256 
	C42.076366,31.310167 42.082310,29.504202 42.115776,27.244522 
	C42.841591,27.893400 43.539879,28.995991 43.955757,29.652658 
	C50.221134,29.376627 56.215038,29.112555 62.604519,28.929205 
z"/>
<path fill="#C4AA7F" opacity="1.000000" stroke="none" 
	d="
M73.846153,10.597145 
	C68.921204,12.428529 70.937294,17.270412 69.054947,20.650242 
	C68.301025,19.767191 67.723518,18.543846 67.009666,16.992622 
	C67.700874,14.627595 68.528427,12.590450 69.180908,10.274767 
	C69.024658,9.581168 69.043472,9.166110 69.324158,8.279562 
	C71.795288,5.605914 73.188934,6.537194 74.182732,9.004580 
	C74.092484,9.429189 74.002235,9.853797 73.846153,10.597145 
z"/>
<path fill="#C5A97D" opacity="1.000000" stroke="none" 
	d="
M54.064941,11.783467 
	C53.388256,10.460663 53.062141,9.279725 52.472187,7.893402 
	C52.465221,6.366173 52.722099,5.044331 53.033676,3.378652 
	C54.391388,4.417063 55.694401,5.799311 56.686493,7.768593 
	C56.747971,10.131578 57.120373,11.907529 57.492771,13.683481 
	C56.467018,13.097433 55.441265,12.511384 54.064941,11.783467 
z"/>
<path fill="#FBF9EE" opacity="1.000000" stroke="none" 
	d="
M74.518433,8.922034 
	C73.188934,6.537194 71.795288,5.605914 69.320984,7.967618 
	C69.338013,6.504560 69.620087,4.881956 69.902161,3.259351 
	C71.590904,5.538052 78.129272,3.367686 74.518433,8.922034 
z"/>
<path fill="#EBEBEA" opacity="1.000000" stroke="none" 
	d="
M59.201317,30.963085 
	C59.245251,30.850458 59.510899,30.756897 59.821663,30.839993 
	C59.866779,31.016647 59.423038,30.982153 59.201317,30.963085 
z"/>
<path fill="#FAEDCD" opacity="1.000000" stroke="none" 
	d="
M57.664204,13.918873 
	C57.120373,11.907529 56.747971,10.131578 56.642311,8.127064 
	C57.435497,9.059097 57.961945,10.219695 58.249161,10.852885 
	C59.953098,10.660531 61.435558,10.493178 62.639706,10.777353 
	C61.544460,12.770182 60.727528,14.311481 59.910599,15.852781 
	C59.218945,15.286611 58.527290,14.720438 57.664204,13.918873 
z"/>
<path fill="#CCA05D" opacity="1.000000" stroke="none" 
	d="
M60.095413,16.100878 
	C60.727528,14.311481 61.544460,12.770182 62.678722,11.121502 
	C64.046951,12.742156 65.097847,14.470191 66.235748,16.538448 
	C65.037193,16.069191 63.751629,15.259711 62.498180,14.470454 
	C62.005352,14.887859 61.142792,15.618417 60.095413,16.100878 
z"/>
<path fill="#EBEBEA" opacity="1.000000" stroke="none" 
	d="
M51.433838,31.079344 
	C52.478680,30.790724 53.934525,30.539946 55.666321,30.492941 
	C54.576466,30.836872 53.210655,30.977028 51.433838,31.079344 
z"/>
<path fill="#FAFBFA" opacity="1.000000" stroke="none" 
	d="
M61.741295,31.512394 
	C62.011974,30.994608 62.239662,30.658943 62.726570,30.163788 
	C62.991077,30.450481 62.996365,30.896666 63.007462,31.677784 
	C62.827114,32.012009 62.640957,32.011299 62.175564,32.011341 
	C61.896328,32.012093 61.698299,31.694517 61.741295,31.512394 
z"/>
<path fill="#CAA666" opacity="1.000000" stroke="none" 
	d="
M44.048714,17.121365 
	C44.805405,14.439942 45.692608,12.045893 46.762627,9.158542 
	C47.922031,11.359380 48.954449,13.319154 49.986053,15.636643 
	C48.648911,16.565775 47.339432,17.220215 45.962337,17.665590 
	C45.449322,17.831511 44.778240,17.508694 44.048714,17.121365 
z"/>
<path fill="#C5A97D" opacity="1.000000" stroke="none" 
	d="
M53.190041,12.861814 
	C53.077332,12.664321 53.191921,12.351005 53.536507,11.932426 
	C53.650112,12.133439 53.533726,12.439714 53.190041,12.861814 
z"/>
<path fill="#EEE5CE" opacity="1.000000" stroke="none" 
	d="
M65.764183,29.150936 
	C65.732681,29.301912 65.450500,29.361414 65.076752,29.278011 
	C65.161301,29.109892 65.337402,29.084675 65.764183,29.150936 
z"/>
</svg>